<svg aria-label="Подарок" viewBox="0 0 78 80"><path fill="#fff" d="M64.02 34.71H14.03a3.18 3.18 0 0 1-3.18-3.16v-9.47a3.18 3.18 0 0 1 3.18-3.16h49.98a3.17 3.17 0 0 1 3.18 3.16v9.47a3.17 3.17 0 0 1-3.18 3.16ZM14.03 21.35a.75.75 0 0 0-.74.73v9.47c0 .41.33.74.74.74h49.98c.41 0 .75-.33.75-.74v-9.47a.75.75 0 0 0-.75-.73H14.03Z"/><path fill="#fff" d="M57.05 67.15H21a6.11 6.11 0 0 1-6.13-6.09V33.5a1.22 1.22 0 0 1 2.44 0v27.56A3.68 3.68 0 0 0 21 64.73h36.05a3.68 3.68 0 0 0 3.68-3.67V33.5a1.22 1.22 0 0 1 2.44 0v27.56a6.11 6.11 0 0 1-6.12 6.09Z"/><path fill="#fff" d="M39.02 67.15a1.22 1.22 0 0 1-1.22-1.21V33.5a1.22 1.22 0 0 1 2.44 0v32.44c0 .67-.54 1.2-1.22 1.2Zm-15.2-45.8a7.8 7.8 0 0 1-3.18-10.6A7.9 7.9 0 0 1 31.3 7.58c5.82 3.13 8.96 11.86 9.09 12.23l-2.3.8c-.03-.08-2.96-8.22-7.95-10.9a5.46 5.46 0 0 0-7.36 2.17 5.39 5.39 0 0 0 2.2 7.32l-1.17 2.13Z"/><path fill="#fff" d="m54.23 21.34-1.16-2.13a5.38 5.38 0 0 0 2.62-3.2 5.33 5.33 0 0 0-.43-4.12 5.38 5.38 0 0 0-3.22-2.6 5.43 5.43 0 0 0-4.14.43c-4.98 2.68-7.91 10.82-7.94 10.9l-2.3-.8c.13-.37 3.27-9.1 9.08-12.23a7.86 7.86 0 0 1 6-.62 7.8 7.8 0 0 1 4.67 3.77 7.72 7.72 0 0 1 .62 5.95 7.79 7.79 0 0 1-3.8 4.65Zm7.72 29.6H16.09a1.22 1.22 0 0 1-1.22-1.22c0-.67.55-1.21 1.22-1.21h45.86c.67 0 1.22.54 1.22 1.21 0 .67-.55 1.21-1.22 1.21Z"/></svg>